<?xml version="1.0" encoding="UTF-8" standalone="no"?>
<!DOCTYPE svg PUBLIC "-//W3C//DTD SVG 1.1//EN" "http://www.w3.org/Graphics/SVG/1.1/DTD/svg11.dtd">
<svg xmlns="http://www.w3.org/2000/svg" version="1.1" viewBox="0.00 0.00 50.00 50.00">
<rect fill="#2196f3" x="18.75" y="6.27" width="12.50" height="37.46" rx="3.27"/>
<path fill="#ffc107" d="
  M 0.00 41.14
  L 0.00 18.02
  Q 1.13 15.55 3.77 15.61
  C 7.08 15.68 12.36 14.53 12.41 19.00
  Q 12.52 29.27 12.48 39.53
  C 12.46 42.05 11.69 43.70 9.00 43.74
  C 5.94 43.80 1.22 44.74 0.00 41.14
  Z"
/>
<path fill="#f44336" d="
  M 50.00 24.38
  L 50.00 41.44
  C 48.36 44.74 43.62 43.78 40.59 43.72
  A 3.14 3.14 0.0 0 1 37.52 40.60
  Q 37.47 33.26 37.49 25.50
  C 37.50 21.01 42.24 21.79 45.75 21.91
  Q 49.09 22.02 50.00 24.38
  Z"
/>
</svg>
