<?xml version="1.0" encoding="UTF-8" standalone="no"?>
<!DOCTYPE svg PUBLIC "-//W3C//DTD SVG 1.1//EN" "http://www.w3.org/Graphics/SVG/1.1/DTD/svg11.dtd">
<svg xmlns="http://www.w3.org/2000/svg" version="1.1" viewBox="0.00 0.00 50.00 50.00">
<path fill="#99680c" d="
  M 30.84 30.49
  Q 23.30 26.58 15.87 30.40
  A 1.10 1.10 0.0 0 1 14.32 29.77
  Q 11.73 21.82 9.19 13.82
  C 7.43 8.29 10.70 5.70 15.40 4.27
  C 17.40 3.67 19.34 2.43 21.29 2.20
  Q 28.60 1.33 34.86 3.89
  C 37.70 5.05 43.24 9.61 42.61 13.30
  C 42.09 16.32 38.93 19.95 36.51 22.73
  C 34.43 25.13 34.80 27.88 34.54 30.85
  A 0.79 0.79 0.0 0 1 33.56 31.55
  Q 32.32 31.26 30.84 30.49
  Z
  M 39.14 9.91
  L 35.28 20.56
  A 0.17 0.17 0.0 0 0 35.57 20.73
  C 37.77 18.22 42.96 13.19 39.14 9.91
  C 36.06 4.70 27.59 3.67 22.21 4.02
  A 0.74 0.72 7.7 0 0 21.56 4.50
  C 19.85 9.25 21.57 15.88 22.37 20.79
  Q 22.47 21.35 23.03 21.31
  Q 28.49 20.90 33.25 23.48
  Q 33.74 23.75 33.80 23.19
  C 34.10 20.32 36.04 10.94 39.14 9.91
  Z
  M 16.14 22.82
  Q 18.68 21.43 21.51 21.41
  Q 22.10 21.41 21.95 20.84
  C 20.48 15.58 19.55 10.27 20.71 4.80
  Q 20.87 4.06 20.21 4.42
  Q 17.38 5.97 14.19 6.69
  A 4.54 4.53 -15.2 0 0 10.86 12.49
  L 14.25 23.22
  A 0.47 0.46 -23.4 0 0 14.92 23.48
  Q 15.09 23.39 15.25 23.31
  Q 15.29 23.29 16.14 22.82
  Z
  M 31.84 24.93
  C 27.26 22.63 20.30 22.60 15.97 25.09
  Q 15.04 25.62 15.36 26.64
  L 15.54 27.24
  Q 15.84 28.19 16.77 27.83
  Q 24.63 24.81 32.01 28.70
  Q 32.81 29.13 32.78 28.22
  L 32.73 26.32
  A 1.64 1.61 12.9 0 0 31.84 24.93
  Z"
/>
<path fill="#99680c" d="
  M 26.70 5.17
  Q 26.73 5.09 26.81 5.11
  L 27.07 5.17
  Q 27.08 5.18 27.04 5.39
  Q 25.71 12.61 25.61 19.96
  A 0.09 0.09 0.0 0 1 25.43 19.98
  Q 23.94 12.18 26.70 5.17
  Z"
/>
<path fill="#99680c" d="
  M 33.58 6.53
  L 30.74 13.75
  Q 30.37 14.69 30.55 13.70
  Q 31.24 9.85 33.07 6.40
  Q 33.18 6.20 33.38 6.29
  L 33.61 6.40
  Q 33.63 6.40 33.58 6.53
  Z"
/>
<path fill="#99680c" d="
  M 17.28 7.53
  A 0.15 0.15 0.0 0 1 17.44 7.66
  L 18.06 12.76
  A 7.91 0.36 83.1 0 1 18.65 20.66
  L 18.61 20.66
  A 7.91 0.36 83.1 0 1 17.31 12.86
  L 16.69 7.75
  A 0.15 0.15 0.0 0 1 16.82 7.59
  L 17.28 7.53
  Z"
/>
<path fill="#99680c" d="
  M 12.14 8.83
  A 0.24 0.23 78.5 0 1 12.38 8.46
  C 13.41 8.72 14.14 9.81 14.36 10.90
  Q 15.39 16.10 16.36 21.30
  Q 16.39 21.48 16.21 21.52
  L 16.20 21.53
  Q 16.01 21.57 15.97 21.38
  C 15.04 17.66 14.45 11.87 12.14 8.83
  Z"
/>
<ellipse fill="#99680c" cx="0.00" cy="0.00" transform="translate(30.13,18.59) rotate(95.6)" rx="2.27" ry="0.15"/>
<path fill="#99680c" d="
  M 21.43 33.20
  Q 20.75 33.25 19.51 33.66
  Q 18.60 33.97 18.07 33.11
  Q 17.73 32.53 18.35 32.78
  Q 19.54 33.24 20.67 32.72
  Q 21.18 32.49 21.72 32.64
  Q 22.25 32.79 22.54 33.17
  Q 22.78 33.49 22.38 33.45
  Q 22.14 33.43 21.92 33.30
  Q 21.69 33.18 21.43 33.20
  Z"
/>
<path fill="#99680c" d="
  M 10.57 37.18
  L 14.53 39.03
  A 0.48 0.47 -56.5 0 1 14.68 39.78
  L 14.51 39.97
  A 0.82 0.81 33.3 0 1 13.53 40.17
  L 8.48 37.65
  A 0.89 0.88 -45.8 0 1 8.46 36.08
  L 13.27 33.50
  A 0.47 0.47 0.0 0 1 13.96 33.84
  L 14.04 34.25
  A 0.37 0.36 72.0 0 1 13.85 34.63
  L 10.55 36.33
  A 0.48 0.47 43.8 0 0 10.57 37.18
  Z"
/>
<path fill="#99680c" d="
  M 37.67 35.68
  L 34.68 34.59
  A 0.50 0.50 0.0 0 1 34.40 33.90
  L 34.51 33.67
  A 0.32 0.31 16.9 0 1 34.85 33.49
  Q 37.56 33.96 39.64 35.75
  Q 40.18 36.21 39.61 36.63
  L 35.13 39.89
  A 0.33 0.32 -31.4 0 1 34.65 39.78
  L 34.47 39.43
  A 0.32 0.32 0.0 0 1 34.57 39.02
  L 37.81 36.68
  A 0.57 0.57 0.0 0 0 37.67 35.68
  Z"
/>
<ellipse fill="#99680c" cx="0.00" cy="0.00" transform="translate(20.39,36.90) rotate(84.8)" rx="1.81" ry="1.58"/>
<ellipse fill="#99680c" cx="0.00" cy="0.00" transform="translate(28.86,36.87) rotate(87.9)" rx="1.83" ry="1.59"/>
<path fill="#99680c" d="
  M 25.86 41.08
  Q 26.04 40.89 26.28 40.80
  Q 26.62 40.68 26.41 40.97
  Q 26.15 41.30 25.82 41.56
  Q 25.51 41.79 25.12 41.75
  Q 24.42 41.66 23.94 41.20
  Q 23.57 40.86 24.06 40.99
  L 25.16 41.28
  Q 25.57 41.39 25.86 41.08
  Z"
/>
<path fill="#99680c" d="
  M 15.94 43.04
  C 18.89 44.85 20.02 42.05 22.73 42.33
  A 1.54 1.54 0.0 0 1 24.12 43.83
  C 24.18 47.67 15.33 48.71 15.41 43.33
  Q 15.41 42.71 15.94 43.04
  Z"
/>
<path fill="#99680c" d="
  M 28.17 42.65
  C 30.03 43.53 31.46 44.11 33.39 42.96
  Q 33.81 42.71 33.87 43.20
  C 34.42 47.79 28.56 47.60 25.99 45.68
  A 1.88 1.87 -57.7 0 1 25.46 43.30
  Q 26.28 41.75 28.17 42.65
  Z"
/>
</svg>
